<svg width="612" height="236" viewBox="0 0 612 236" fill="none" xmlns="http://www.w3.org/2000/svg">
<path d="M69.0271 164.374L106.127 71.626H124.676L161.714 164.312L141.989 164.374L136.425 150.153H94.3781L88.8141 164.374H69.0271ZM115.896 96.359L101.798 131.603H129.623L115.896 96.359Z" fill="black"/>
<path d="M175.75 71.626V164.374H243.766V147.061H194.3V71.626H175.75Z" fill="black"/>
<path d="M300.713 164.374C287.522 164.374 276.496 159.933 267.633 151.049C258.77 142.166 254.339 131.15 254.339 118C254.339 104.809 258.77 93.782 267.633 84.92C276.496 76.057 287.522 71.626 300.713 71.626C313.904 71.626 324.931 76.057 333.794 84.92C342.656 93.782 347.088 104.809 347.088 118C347.088 131.191 342.656 142.218 333.794 151.08C324.931 159.943 313.904 164.374 300.713 164.374ZM300.775 147.061C308.978 147.061 315.656 144.279 320.809 138.714C325.962 133.149 328.538 126.244 328.538 118C328.538 109.756 325.962 102.851 320.809 97.286C315.656 91.721 308.937 88.939 300.651 88.939C292.448 88.939 285.77 91.721 280.618 97.286C275.465 102.851 272.889 109.756 272.889 118C272.889 126.244 275.465 133.149 280.618 138.714C285.77 144.279 292.49 147.061 300.775 147.061Z" fill="black"/>
<path d="M402.18 164.374C389.072 164.333 378.076 159.891 369.193 151.049C360.309 142.207 355.868 131.129 355.868 117.815C355.909 104.788 360.361 93.834 369.224 84.951C378.086 76.067 389.072 71.626 402.18 71.626C415.413 71.626 426.769 75.748 436.25 83.992L423.884 97.533C417.577 92.587 410.342 90.114 402.18 90.114C393.854 90.155 387.145 92.752 382.054 97.904C376.963 103.057 374.418 109.653 374.418 117.691C374.459 126.306 377.035 133.149 382.147 138.219C387.258 143.289 393.977 145.825 402.304 145.825C408.982 145.825 414.114 144.506 417.7 141.867V125.976L405.334 126.038V108.725H436.25V152.008C426.81 160.252 415.454 164.374 402.18 164.374Z" fill="black"/>
<path d="M496.598 164.374C483.408 164.374 472.381 159.933 463.518 151.049C454.655 142.166 450.224 131.15 450.224 118C450.224 104.809 454.655 93.782 463.518 84.92C472.381 76.057 483.408 71.626 496.598 71.626C509.789 71.626 520.816 76.057 529.679 84.92C538.542 93.782 542.973 104.809 542.973 118C542.973 131.191 538.542 142.218 529.679 151.08C520.816 159.943 509.789 164.374 496.598 164.374ZM496.66 147.061C504.863 147.061 511.541 144.279 516.694 138.714C521.847 133.149 524.423 126.244 524.423 118C524.423 109.756 521.847 102.851 516.694 97.286C511.541 91.721 504.822 88.939 496.537 88.939C488.334 88.939 481.656 91.721 476.503 97.286C471.35 102.851 468.774 109.756 468.774 118C468.774 126.244 471.35 133.149 476.503 138.714C481.656 144.279 488.375 147.061 496.66 147.061Z" fill="black"/>
<path d="M602.647 8.96698H9.35205V227.032H602.647V8.96698Z" stroke="black" stroke-width="17" stroke-miterlimit="1.5"/>
</svg>
